<?xml version="1.0" encoding="UTF-8"?>
<svg xmlns="http://www.w3.org/2000/svg" xmlns:xlink="http://www.w3.org/1999/xlink" width="376.84pt" height="97.66pt" viewBox="0 0 376.84 97.66" version="1.1">
<defs>
<clipPath id="clip1">
  <path d="M 158 83 L 161 83 L 161 97.660156 L 158 97.660156 Z M 158 83 "/>
</clipPath>
<clipPath id="clip2">
  <path d="M 215 83 L 227 83 L 227 97.660156 L 215 97.660156 Z M 215 83 "/>
</clipPath>
<clipPath id="clip3">
  <path d="M 243 83 L 258 83 L 258 97.660156 L 243 97.660156 Z M 243 83 "/>
</clipPath>
<clipPath id="clip4">
  <path d="M 166 83 L 179 83 L 179 97.660156 L 166 97.660156 Z M 166 83 "/>
</clipPath>
<clipPath id="clip5">
  <path d="M 182 83 L 195 83 L 195 97.660156 L 182 97.660156 Z M 182 83 "/>
</clipPath>
<clipPath id="clip6">
  <path d="M 200 83 L 210 83 L 210 97.660156 L 200 97.660156 Z M 200 83 "/>
</clipPath>
<clipPath id="clip7">
  <path d="M 231 83 L 240 83 L 240 97.660156 L 231 97.660156 Z M 231 83 "/>
</clipPath>
<clipPath id="clip8">
  <path d="M 263 83 L 276 83 L 276 97.660156 L 263 97.660156 Z M 263 83 "/>
</clipPath>
<clipPath id="clip9">
  <path d="M 282 83 L 295 83 L 295 97.660156 L 282 97.660156 Z M 282 83 "/>
</clipPath>
<clipPath id="clip10">
  <path d="M 132 83 L 154 83 L 154 97.660156 L 132 97.660156 Z M 132 83 "/>
</clipPath>
<clipPath id="clip11">
  <path d="M 119 83 L 129 83 L 129 97.660156 L 119 97.660156 Z M 119 83 "/>
</clipPath>
<clipPath id="clip12">
  <path d="M 102 83 L 110 83 L 110 97.660156 L 102 97.660156 Z M 102 83 "/>
</clipPath>
<clipPath id="clip13">
  <path d="M 81 83 L 96 83 L 96 97.660156 L 81 97.660156 Z M 81 83 "/>
</clipPath>
<clipPath id="clip14">
  <path d="M 309 0 L 376.839844 0 L 376.839844 69 L 309 69 Z M 309 0 "/>
</clipPath>
</defs>
<g id="surface1">
<g clip-path="url(#clip1)" clip-rule="nonzero">
<path style=" stroke:none;fill-rule:nonzero;fill:rgb(44.313049%,43.920898%,45.489502%);fill-opacity:1;" d="M 158.511719 83.820313 L 158.511719 97.5 L 160.886719 97.5 L 160.886719 83.820313 L 158.511719 83.820313 "/>
</g>
<g clip-path="url(#clip2)" clip-rule="nonzero">
<path style=" stroke:none;fill-rule:nonzero;fill:rgb(44.313049%,43.920898%,45.489502%);fill-opacity:1;" d="M 221.515625 87.882813 C 221.488281 88.507813 221.164063 89.234375 218.851563 89.273438 C 218.851563 89.273438 218.402344 89.285156 218.023438 89.289063 L 218.023438 86.210938 C 218.40625 86.210938 218.832031 86.210938 218.832031 86.210938 C 219.792969 86.207031 220.738281 86.269531 221.1875 86.734375 C 221.410156 86.964844 221.515625 87.300781 221.515625 87.757813 C 221.515625 87.796875 221.515625 87.839844 221.515625 87.882813 Z M 224.867188 94.222656 C 224.699219 93.945313 223.449219 91.902344 222.324219 90.785156 C 223.488281 90.113281 224.097656 89.136719 224.105469 87.785156 L 224.105469 87.75 C 224.105469 86.671875 223.765625 85.777344 223.085938 85.097656 C 222.222656 84.226563 220.855469 83.765625 219.136719 83.765625 L 215.375 83.785156 L 215.308594 97.421875 L 217.996094 97.421875 C 217.996094 97.421875 218.011719 92.566406 218.011719 91.734375 L 218.527344 91.734375 L 219.011719 91.75 C 219.851563 91.757813 220.359375 91.761719 221.859375 94.359375 L 223.660156 97.484375 L 226.878906 97.484375 L 224.867188 94.222656 "/>
</g>
<g clip-path="url(#clip3)" clip-rule="nonzero">
<path style=" stroke:none;fill-rule:nonzero;fill:rgb(44.313049%,43.920898%,45.489502%);fill-opacity:1;" d="M 249.347656 90.933594 C 249.710938 90.160156 250.285156 88.925781 250.738281 87.957031 C 251.210938 88.921875 251.808594 90.148438 252.183594 90.925781 C 251.347656 90.929688 250.179688 90.933594 249.347656 90.933594 Z M 251.453125 83.601563 L 250.03125 83.632813 L 243.820313 97.445313 L 246.335938 97.472656 C 246.335938 97.472656 248.234375 93.644531 248.480469 93.15625 C 248.996094 93.160156 252.625 93.167969 253.160156 93.171875 C 253.390625 93.679688 255.097656 97.472656 255.097656 97.472656 L 257.9375 97.445313 L 251.453125 83.601563 "/>
</g>
<g clip-path="url(#clip4)" clip-rule="nonzero">
<path style=" stroke:none;fill-rule:nonzero;fill:rgb(44.313049%,43.920898%,45.489502%);fill-opacity:1;" d="M 166.457031 83.789063 L 178.078125 83.789063 L 178.078125 86.199219 L 173.59375 86.199219 L 173.59375 97.480469 L 171.144531 97.480469 L 171.144531 86.199219 L 166.457031 86.199219 L 166.457031 83.789063 "/>
</g>
<g clip-path="url(#clip5)" clip-rule="nonzero">
<path style=" stroke:none;fill-rule:nonzero;fill:rgb(44.313049%,43.920898%,45.489502%);fill-opacity:1;" d="M 183.039063 83.789063 L 194.34375 83.789063 L 195 85.121094 L 186.589844 95.085938 L 194.859375 95.085938 L 194.859375 97.460938 L 182.621094 97.460938 L 182.621094 96.183594 L 190.695313 86.21875 L 183.039063 86.21875 L 183.039063 83.789063 "/>
</g>
<g clip-path="url(#clip6)" clip-rule="nonzero">
<path style=" stroke:none;fill-rule:nonzero;fill:rgb(44.313049%,43.920898%,45.489502%);fill-opacity:1;" d="M 208.996094 91.75 L 203.457031 91.773438 L 203.457031 95.046875 L 209.183594 95.0625 L 209.183594 97.46875 L 200.820313 97.453125 L 200.820313 83.789063 L 209.164063 83.789063 L 209.164063 86.21875 L 203.457031 86.21875 L 203.457031 89.339844 L 208.984375 89.339844 L 208.996094 91.75 "/>
</g>
<g clip-path="url(#clip7)" clip-rule="nonzero">
<path style=" stroke:none;fill-rule:nonzero;fill:rgb(44.313049%,43.920898%,45.489502%);fill-opacity:1;" d="M 231.324219 83.789063 L 233.949219 83.789063 L 233.949219 95.046875 L 239.886719 95.046875 L 239.886719 97.484375 L 231.324219 97.484375 L 231.324219 83.789063 "/>
</g>
<g clip-path="url(#clip8)" clip-rule="nonzero">
<path style=" stroke:none;fill-rule:nonzero;fill:rgb(44.313049%,43.920898%,45.489502%);fill-opacity:1;" d="M 263.023438 83.789063 L 265.011719 83.789063 L 273.085938 92.988281 L 273.085938 83.789063 L 275.480469 83.789063 L 275.480469 97.453125 L 273.710938 97.453125 L 265.683594 88.304688 L 265.683594 97.453125 L 263.023438 97.453125 L 263.023438 83.789063 "/>
</g>
<g clip-path="url(#clip9)" clip-rule="nonzero">
<path style=" stroke:none;fill-rule:nonzero;fill:rgb(44.313049%,43.920898%,45.489502%);fill-opacity:1;" d="M 287.59375 95.070313 C 287.59375 95.070313 285.535156 95.070313 285.125 95.070313 C 285.121094 94.609375 285.105469 86.683594 285.105469 86.222656 C 285.515625 86.222656 287.59375 86.222656 287.59375 86.222656 C 291.714844 86.222656 292.328125 89.054688 292.328125 90.746094 C 292.328125 91.46875 292.101563 95.070313 287.59375 95.070313 Z M 293.082031 85.667969 C 291.828125 84.414063 290.078125 83.777344 287.882813 83.777344 L 282.5 83.75 L 282.503906 97.425781 L 287.828125 97.425781 C 293.105469 97.40625 294.984375 93.898438 294.984375 90.625 C 294.984375 88.652344 294.308594 86.894531 293.082031 85.667969 "/>
</g>
<g clip-path="url(#clip10)" clip-rule="nonzero">
<path style=" stroke:none;fill-rule:nonzero;fill:rgb(44.313049%,43.920898%,45.489502%);fill-opacity:1;" d="M 132.535156 83.789063 L 138.035156 97.660156 L 139.371094 97.660156 L 142.800781 88.667969 L 146.449219 97.660156 L 147.765625 97.660156 L 153.066406 83.789063 L 150.535156 83.785156 L 147.007813 92.476563 L 143.417969 83.804688 L 142.164063 83.804688 L 138.613281 92.457031 L 135.246094 83.804688 L 132.535156 83.789063 "/>
</g>
<g clip-path="url(#clip11)" clip-rule="nonzero">
<path style=" stroke:none;fill-rule:nonzero;fill:rgb(44.313049%,43.920898%,45.489502%);fill-opacity:1;" d="M 119.574219 87.765625 C 119.574219 90.105469 121.535156 90.917969 123.113281 91.574219 C 124.515625 92.15625 125.375 92.558594 125.367188 93.453125 C 125.363281 93.875 124.964844 95.027344 123.714844 95.027344 C 122.546875 95.027344 121.644531 94.339844 120.6875 93.613281 L 119.898438 93.015625 L 119.847656 93.976563 L 119.8125 96.246094 L 120.015625 96.398438 C 121.132813 97.238281 122.375 97.628906 123.933594 97.628906 C 126.214844 97.628906 127.996094 95.832031 128.078125 93.449219 C 128.164063 90.902344 126.136719 90.019531 124.503906 89.308594 C 123.144531 88.71875 122.308594 88.3125 122.308594 87.46875 C 122.308594 87.144531 122.492188 86.769531 122.792969 86.492188 C 123.152344 86.15625 123.644531 85.996094 124.171875 86.035156 C 124.894531 86.085938 125.425781 86.378906 126.480469 86.964844 L 127.535156 87.546875 L 127.5625 84.75 L 127.335938 84.597656 C 126.34375 83.9375 125.101563 83.542969 124.019531 83.542969 C 121.441406 83.542969 119.574219 85.320313 119.574219 87.765625 "/>
</g>
<g clip-path="url(#clip12)" clip-rule="nonzero">
<path style=" stroke:none;fill-rule:nonzero;fill:rgb(44.313049%,43.920898%,45.489502%);fill-opacity:1;" d="M 109.746094 86.203125 L 104.417969 86.203125 L 104.417969 89.125 L 109.152344 89.125 L 109.136719 91.5625 L 104.417969 91.546875 L 104.417969 97.460938 L 102.027344 97.460938 L 102.027344 83.800781 L 109.730469 83.800781 L 109.746094 86.203125 "/>
</g>
<g clip-path="url(#clip13)" clip-rule="nonzero">
<path style=" stroke:none;fill-rule:nonzero;fill:rgb(44.313049%,43.920898%,45.489502%);fill-opacity:1;" d="M 88.136719 95.046875 C 85.582031 95.046875 83.65625 93.128906 83.65625 90.585938 C 83.65625 88.078125 85.75 86.035156 88.320313 86.035156 C 90.84375 86.035156 92.816406 88.046875 92.816406 90.613281 C 92.816406 93.101563 90.761719 95.046875 88.136719 95.046875 Z M 93.296875 85.527344 C 91.925781 84.191406 90.089844 83.480469 88.121094 83.53125 C 84.058594 83.628906 81.066406 86.628906 81.003906 90.664063 C 80.972656 92.449219 81.703125 94.167969 83.054688 95.511719 C 84.476563 96.917969 86.378906 97.703125 88.277344 97.65625 C 92.429688 97.558594 95.441406 94.605469 95.441406 90.636719 C 95.441406 88.71875 94.660156 86.855469 93.296875 85.527344 "/>
</g>
<path style=" stroke:none;fill-rule:nonzero;fill:rgb(44.313049%,43.920898%,45.489502%);fill-opacity:1;" d="M 55.425781 48.875 C 55.425781 62.707031 65.585938 70.585938 79.949219 70.585938 C 93.082031 70.585938 101.828125 63.816406 102.160156 51.625 L 102.160156 42.378906 C 102.160156 41.144531 102.160156 9.246094 102.160156 7.019531 C 102.164063 4.972656 104.519531 5.089844 104.519531 5.089844 L 107.992188 5.089844 C 108.414063 5.089844 108.757813 4.757813 108.757813 4.34375 L 108.757813 3.785156 C 108.757813 3.371094 108.414063 3.039063 107.992188 3.039063 L 93.242188 3.039063 C 92.820313 3.039063 92.480469 3.371094 92.480469 3.785156 L 92.480469 4.34375 C 92.480469 4.757813 92.820313 5.089844 93.242188 5.089844 L 97.355469 5.089844 C 97.355469 5.089844 100.15625 4.855469 100.164063 6.9375 C 100.171875 8.585938 100.171875 46.832031 100.171875 46.832031 L 100.136719 51.445313 C 100.136719 61.988281 92.171875 67.992188 82.863281 67.992188 C 69.835938 67.992188 65.375 60.523438 65.375 50.023438 L 65.335938 42.378906 C 65.335938 41.144531 65.335938 9.246094 65.335938 7.019531 C 65.335938 4.710938 67.808594 5.089844 67.808594 5.089844 L 71.738281 5.089844 C 72.15625 5.089844 72.5 4.757813 72.5 4.34375 L 72.5 3.785156 C 72.5 3.371094 72.15625 3.039063 71.738281 3.039063 L 48.746094 3.039063 C 48.324219 3.039063 47.984375 3.371094 47.984375 3.785156 L 47.984375 4.34375 C 47.984375 4.757813 48.324219 5.089844 48.746094 5.089844 L 52.824219 5.089844 C 52.824219 5.089844 55.328125 4.710938 55.328125 6.9375 C 55.328125 8.585938 55.332031 46.71875 55.332031 46.71875 L 55.425781 48.875 "/>
<path style=" stroke:none;fill-rule:nonzero;fill:rgb(44.313049%,43.920898%,45.489502%);fill-opacity:1;" d="M 232.746094 48.816406 L 232.671875 48.816406 C 232.25 48.816406 231.652344 49.5625 231.652344 49.5625 C 230.242188 58.542969 225.152344 67.351563 211.855469 67.351563 L 198.734375 67.363281 C 198.734375 67.363281 196.378906 67.59375 196.378906 65.285156 L 196.378906 35.949219 C 196.699219 35.714844 197.046875 35.550781 197.398438 35.550781 C 203.609375 35.550781 211.78125 33.714844 213.613281 43.917969 C 213.617188 43.949219 213.632813 43.960938 213.640625 43.988281 L 213.640625 45.59375 C 213.640625 46.007813 213.980469 46.34375 214.402344 46.34375 L 214.742188 46.34375 C 215.160156 46.34375 215.503906 46.007813 215.503906 45.59375 L 215.503906 23.75 C 215.503906 23.339844 215.160156 23.003906 214.742188 23.003906 L 214.476563 23.003906 C 214.058594 23.003906 213.714844 23.339844 213.714844 23.75 L 213.640625 25.382813 C 211.796875 34.953125 203.523438 33.324219 197.398438 33.324219 C 197.046875 33.324219 196.699219 33.160156 196.378906 32.921875 L 196.378906 7.019531 C 196.378906 4.710938 199.226563 5.125 199.226563 5.125 L 214.066406 5.125 C 222.765625 5.125 227.617188 9.734375 228.816406 18.738281 C 228.816406 18.738281 228.96875 19.488281 229.386719 19.488281 L 229.730469 19.488281 C 230.152344 19.488281 230.492188 19.152344 230.492188 18.738281 L 230.492188 3.777344 C 230.492188 3.367188 230.152344 3.03125 229.730469 3.03125 L 199.171875 3.03125 L 180.234375 3.039063 C 179.8125 3.039063 179.472656 3.371094 179.472656 3.785156 L 179.472656 4.34375 C 179.472656 4.757813 179.8125 5.089844 180.234375 5.089844 L 184.238281 5.089844 C 184.238281 5.089844 186.472656 4.75 186.472656 6.972656 L 186.472656 65.367188 C 186.472656 67.59375 184.046875 67.328125 184.046875 67.328125 L 179.699219 67.328125 C 179.28125 67.328125 178.941406 67.660156 178.941406 68.074219 L 178.941406 68.40625 C 178.941406 68.816406 179.28125 69.152344 179.699219 69.152344 L 229.984375 69.207031 L 230.746094 69.207031 C 231.167969 69.207031 231.539063 69.175781 231.574219 68.761719 L 233.402344 49.5625 C 233.4375 49.152344 233.164063 48.816406 232.746094 48.816406 "/>
<path style=" stroke:none;fill-rule:nonzero;fill:rgb(44.313049%,43.920898%,45.489502%);fill-opacity:1;" d="M 143.914063 70.839844 C 143.453125 70.839844 142.820313 69.382813 142.820313 69.382813 C 142.820313 69.382813 119.148438 9.023438 118.539063 7.375 C 117.714844 5.152344 115.433594 5.28125 115.433594 5.28125 L 111.664063 5.0625 C 111.246094 5.0625 110.90625 4.765625 110.90625 4.351563 L 110.90625 3.792969 C 110.90625 3.378906 111.246094 3.046875 111.664063 3.046875 L 133.820313 3.046875 C 134.242188 3.046875 134.582031 3.378906 134.582031 3.792969 L 134.582031 4.351563 C 134.582031 4.765625 134.242188 5.097656 133.820313 5.097656 L 131.160156 5.199219 C 131.160156 5.199219 128.558594 5.078125 129.414063 7.382813 C 130.238281 9.609375 146.976563 52.378906 146.976563 52.378906 C 146.976563 52.378906 147.625 54.042969 148.007813 54.042969 C 148.390625 54.042969 149.136719 52.128906 149.136719 52.128906 C 149.136719 52.128906 164.671875 12.789063 166.691406 6.945313 C 167.472656 4.703125 164.988281 5.097656 164.988281 5.097656 L 161.464844 5.097656 C 161.042969 5.097656 160.703125 4.765625 160.703125 4.351563 L 160.738281 3.792969 C 160.738281 3.378906 161.078125 3.046875 161.5 3.046875 L 175.875 3.046875 C 176.296875 3.046875 176.636719 3.378906 176.636719 3.792969 L 176.636719 4.351563 C 176.636719 4.765625 176.296875 5.097656 175.875 5.097656 L 172.0625 5.097656 C 172.0625 5.097656 169.9375 4.90625 168.988281 7.179688 C 163.882813 19.453125 144.832031 69.347656 144.832031 69.347656 C 144.832031 69.347656 144.371094 70.839844 143.914063 70.839844 "/>
<g clip-path="url(#clip14)" clip-rule="nonzero">
<path style=" stroke:none;fill-rule:nonzero;fill:rgb(44.313049%,43.920898%,45.489502%);fill-opacity:1;" d="M 349.320313 47.382813 L 328.84375 47.382813 C 328.84375 47.382813 328.125 47.5 327.875 47.191406 C 327.621094 46.886719 328.179688 45.417969 328.179688 45.417969 L 338.414063 19.25 C 338.414063 19.25 339.320313 16.5625 339.863281 16.5625 C 340.40625 16.5625 341.402344 19.414063 341.402344 19.414063 L 351.53125 45.488281 C 351.53125 45.488281 351.9375 46.839844 351.726563 47.191406 C 351.511719 47.546875 349.320313 47.382813 349.320313 47.382813 Z M 376.84375 68.011719 C 376.84375 67.875 376.765625 67.601563 376.746094 67.578125 C 376.605469 67.398438 376.394531 67.273438 376.144531 67.273438 L 371.828125 67.203125 C 371.828125 67.203125 370.191406 67.507813 369.367188 65.28125 C 368.757813 63.632813 345.050781 1.617188 345.050781 1.617188 C 345.050781 1.617188 344.570313 -0.00390625 344.113281 -0.00390625 C 343.65625 -0.00390625 343.128906 1.617188 343.128906 1.617188 C 343.128906 1.617188 323.066406 52.535156 317.960938 64.808594 C 317.015625 67.082031 314.242188 67.039063 314.242188 67.039063 L 310.542969 67.039063 C 310.125 67.039063 309.78125 67.375 309.78125 67.789063 L 309.703125 68.308594 C 309.703125 68.71875 310.046875 68.828125 310.46875 68.828125 L 325.5625 68.828125 C 325.984375 68.828125 326.324219 68.71875 326.324219 68.308594 L 326.441406 67.824219 C 326.441406 67.414063 326.101563 67.078125 325.679688 67.078125 L 321.808594 67.078125 C 321.808594 67.078125 319.59375 67.132813 320.371094 64.890625 C 320.996094 63.085938 325.40625 51.96875 325.40625 51.96875 C 325.40625 51.96875 326.011719 50.113281 326.601563 49.785156 C 327.1875 49.453125 328.332031 49.425781 328.332031 49.425781 L 350.824219 49.425781 C 350.824219 49.425781 352.621094 49.523438 353.054688 50.03125 C 353.480469 50.535156 354.078125 52.046875 354.078125 52.046875 C 354.078125 52.046875 358.867188 64.246094 359.136719 64.972656 C 359.992188 67.28125 357.417969 67.179688 357.417969 67.179688 L 354.195313 67.222656 C 353.773438 67.222656 353.433594 67.445313 353.433594 67.859375 L 353.359375 68.308594 C 353.359375 68.71875 353.699219 68.828125 354.117188 68.828125 L 373.800781 68.828125 C 373.800781 68.828125 376.304688 68.828125 376.324219 68.828125 L 376.503906 68.828125 C 376.675781 68.828125 376.84375 68.554688 376.84375 68.316406 L 376.84375 68.011719 "/>
</g>
<path style=" stroke:none;fill-rule:nonzero;fill:rgb(44.313049%,43.920898%,45.489502%);fill-opacity:1;" d="M 308.675781 3.039063 L 293.574219 3.039063 C 293.15625 3.039063 292.816406 3.371094 292.816406 3.785156 L 292.816406 4.34375 C 292.816406 4.757813 293.15625 5.089844 293.574219 5.089844 L 297.367188 5.089844 C 297.367188 5.089844 299.757813 4.710938 299.757813 6.9375 C 299.757813 8.585938 299.78125 48.824219 299.78125 48.824219 C 299.78125 48.824219 300.007813 50.335938 299.296875 50.46875 C 298.921875 50.539063 298.050781 49.230469 298.050781 49.230469 C 298.050781 49.230469 264.003906 3.042969 264.53125 3.761719 C 265.054688 4.476563 263.949219 3.039063 263.464844 3.011719 L 246.953125 3.011719 C 246.53125 3.011719 246.191406 3.347656 246.191406 3.761719 L 246.191406 4.316406 C 246.191406 4.730469 246.53125 5.066406 246.953125 5.066406 L 250.960938 5.066406 C 250.960938 5.066406 253.386719 4.6875 253.386719 6.910156 C 253.386719 7.980469 253.386719 64.097656 253.386719 65.167969 C 253.386719 67.394531 250.351563 67.242188 250.351563 67.242188 L 246.34375 67.242188 C 245.925781 67.242188 245.582031 67.574219 245.582031 67.988281 L 245.582031 68.320313 C 245.582031 68.734375 245.925781 69.066406 246.34375 69.066406 L 262.089844 69.066406 C 262.511719 69.066406 262.851563 68.734375 262.851563 68.320313 L 262.851563 67.988281 C 262.851563 67.574219 262.511719 67.242188 262.089844 67.242188 L 258.5 67.242188 C 258.5 67.242188 255.613281 67.394531 255.613281 65.085938 C 255.613281 64.09375 255.613281 32.027344 255.613281 16.027344 C 255.613281 13.347656 255.695313 10.59375 256.109375 10.4375 C 256.523438 10.28125 257.105469 10.996094 257.105469 10.996094 C 261.832031 17.167969 299.769531 68.695313 299.769531 68.695313 C 299.769531 68.695313 300.914063 70.199219 301.355469 70.085938 C 301.796875 69.96875 301.847656 68.554688 301.847656 68.554688 C 301.847656 68.554688 301.855469 9.246094 301.855469 7.019531 C 301.855469 4.710938 305.085938 5.089844 305.085938 5.089844 L 308.675781 5.089844 C 309.09375 5.089844 309.4375 4.757813 309.4375 4.34375 L 309.4375 3.785156 C 309.4375 3.371094 309.09375 3.039063 308.675781 3.039063 "/>
<path style=" stroke:none;fill-rule:nonzero;fill:rgb(44.313049%,43.920898%,45.489502%);fill-opacity:1;" d="M 26.175781 77.984375 C 26.953125 76.046875 27.503906 74.171875 27.886719 72.578125 C 28.386719 70.109375 28.574219 67.367188 28.617188 63.644531 C 28.585938 49.300781 28.292969 9.015625 28.292969 7.171875 C 28.292969 4.839844 30.652344 5.058594 30.652344 5.058594 L 34.761719 5.058594 C 35.179688 5.058594 35.519531 4.722656 35.519531 4.3125 L 35.519531 3.753906 C 35.519531 3.34375 35.179688 3.007813 34.761719 3.007813 L 11.539063 3.007813 C 11.117188 3.007813 10.777344 3.34375 10.777344 3.753906 L 10.777344 4.3125 C 10.777344 4.722656 11.117188 5.058594 11.539063 5.058594 L 15.480469 5.058594 C 15.480469 5.058594 17.980469 4.867188 17.980469 7.089844 C 17.980469 8.734375 18.285156 65.492188 18.382813 69.777344 C 18.5 74.839844 19.597656 85.851563 14.40625 89.011719 C 11.175781 90.980469 7.632813 90.441406 7.8125 87.269531 C 7.933594 85.128906 5.410156 83.074219 3.476563 83.074219 C 1.542969 83.074219 0 84.511719 0 86.40625 C 0 88.300781 1.792969 92.484375 8.417969 92.402344 C 14.574219 92.328125 19.816406 88.464844 23.132813 83.722656 C 23.679688 82.941406 24.171875 82.128906 24.617188 81.300781 C 24.636719 81.265625 25.742188 78.996094 26.175781 77.984375 "/>
</g>
</svg>
